# Blender v2.77 (sub 0) OBJ File: 'GlassesAndCups.blend'
# www.blender.org
mtllib Cup_2.mtl
o Cup_2_Cube
v 0.039370 0.000766 0.018581
v 0.031988 0.091626 0.015833
v -0.021150 0.000766 0.046273
v -0.018402 0.091626 0.038890
v 0.011678 0.000766 -0.041939
v 0.008931 0.091626 -0.034556
v -0.048841 0.000766 -0.014247
v -0.041459 0.091626 -0.011500
v 0.034006 0.080476 -0.004019
v -0.023382 0.090835 0.052271
v -0.054840 0.090835 -0.016479
v 0.025273 0.080476 -0.023105
v 0.042416 0.010632 0.019714
v -0.022283 0.010632 0.049318
v -0.051887 0.010632 -0.015381
v 0.012812 0.010632 -0.044985
v -0.038251 0.016846 -0.010306
v 0.007737 0.016846 -0.031349
v 0.028780 0.016846 0.014640
v -0.017208 0.016846 0.035682
v 0.034006 0.021650 -0.004019
v -0.023382 0.002210 0.052271
v -0.054840 0.002210 -0.016479
v 0.025273 0.021650 -0.023105
v -0.023382 0.000766 0.052271
v 0.045369 0.000766 0.020813
v -0.054840 0.000766 -0.016479
v 0.013911 0.000766 -0.047937
v -0.021150 0.007233 0.046273
v 0.039370 0.007233 0.018581
v -0.048841 0.007233 -0.014247
v 0.011678 0.007233 -0.041939
v 0.010993 0.090835 0.036542
v 0.010993 0.000766 0.036542
v -0.020465 0.090835 -0.032208
v -0.020465 0.000766 -0.032208
v 0.010144 0.090835 0.034685
v -0.019615 0.090835 -0.030352
v 0.010066 0.010632 0.034516
v -0.019538 0.010632 -0.030183
v 0.010144 0.016846 0.034685
v -0.019615 0.016846 -0.030352
v -0.020465 0.002210 -0.032208
v 0.010993 0.002210 0.036542
v 0.009110 0.000766 0.032427
v -0.018582 0.000766 -0.028093
v 0.009110 0.007233 0.032427
v -0.018582 0.007233 -0.028093
v -0.039111 0.090835 0.017896
v -0.039111 0.000766 0.017896
v 0.029640 0.080476 -0.013562
v 0.029640 0.000766 -0.013562
v -0.037254 0.090835 0.017046
v 0.027783 0.090835 -0.012713
v -0.037085 0.010632 0.016969
v 0.027614 0.010632 -0.012635
v -0.037254 0.016846 0.017046
v 0.027783 0.016846 -0.012713
v 0.029640 0.021650 -0.013562
v -0.039111 0.002210 0.017896
v -0.034996 0.000766 0.016013
v 0.025524 0.000766 -0.011679
v -0.034996 0.007233 0.016013
v 0.025524 0.007233 -0.011679
v -0.004736 0.007233 0.002167
v -0.004736 0.010632 0.002167
v 0.043640 0.090835 0.020170
v -0.022739 0.090835 0.050542
v -0.053111 0.090835 -0.015836
v 0.013267 0.090835 -0.046209
v -0.020376 0.090835 -0.032015
v 0.010905 0.090835 0.036349
v 0.029446 0.090835 -0.013474
v -0.038917 0.090835 0.017807
v 0.008931 0.073530 -0.034556
v -0.018402 0.073530 0.038890
v -0.041459 0.073530 -0.011500
v 0.031988 0.073530 0.015833
v -0.019615 0.074320 -0.030352
v 0.010144 0.074320 0.034685
v 0.027783 0.074320 -0.012713
v -0.037254 0.074320 0.017046
v 0.035469 0.091390 0.017129
v -0.019698 0.091390 0.042371
v -0.044940 0.091390 -0.012795
v 0.010226 0.091390 -0.038038
v -0.019842 0.090835 -0.030849
v 0.010371 0.090835 0.035182
v 0.028280 0.090835 -0.012940
v -0.037751 0.090835 0.017274
v 0.034006 0.060964 -0.004019
v -0.023382 0.046523 0.052271
v -0.054840 0.046523 -0.016479
v 0.025273 0.060964 -0.023105
v 0.010993 0.046523 0.036542
v -0.020465 0.046523 -0.032208
v -0.039111 0.046523 0.017896
v 0.029640 0.060964 -0.013562
v 0.034006 0.026444 -0.004019
v 0.045369 0.090835 0.020813
v 0.029640 0.090835 -0.013562
v 0.013911 0.090835 -0.047937
v 0.025273 0.026444 -0.023105
v 0.029640 0.046523 -0.013562
v 0.034979 0.080430 -0.016005
v 0.029969 0.061010 -0.013713
v 0.034336 0.061010 -0.004170
v 0.039345 0.080430 -0.006462
v 0.030612 0.080430 -0.025548
v 0.025602 0.061010 -0.023256
v 0.045369 0.071743 0.020813
v -0.023382 0.071743 0.052271
v -0.054840 0.071743 -0.016479
v 0.013911 0.071743 -0.047937
v 0.010993 0.071743 0.036542
v -0.020465 0.071743 -0.032208
v -0.039111 0.071743 0.017896
v 0.034006 0.072069 -0.004019
v 0.025273 0.072069 -0.023105
v 0.036763 0.072063 -0.016822
v 0.041130 0.072063 -0.007278
v 0.032397 0.072063 -0.026365
v 0.064753 0.072063 -0.018088
v 0.064753 0.080430 -0.018088
v 0.060387 0.080430 -0.027631
v 0.056020 0.080430 -0.037174
v 0.060387 0.072063 -0.027631
v 0.056020 0.072063 -0.037174
v 0.051661 0.072063 -0.035179
v 0.056027 0.072063 -0.025636
v 0.060065 0.080430 -0.015942
v 0.055698 0.080430 -0.025485
v 0.060394 0.072063 -0.016093
v 0.051331 0.080430 -0.035029
v 0.051661 0.041138 -0.035179
v 0.056020 0.041138 -0.037174
v 0.064753 0.041138 -0.018088
v 0.060387 0.041138 -0.027631
v 0.056027 0.041138 -0.025636
v 0.060394 0.041138 -0.016093
v 0.013911 0.046523 -0.047937
v 0.013911 0.002210 -0.047937
v 0.029640 0.002210 -0.013562
v 0.045369 0.002210 0.020813
v 0.045369 0.046523 0.020813
v 0.029640 0.026444 -0.013562
v 0.039795 0.029199 -0.029750
v 0.042878 0.025809 -0.031161
v 0.051611 0.025809 -0.012074
v 0.047245 0.025809 -0.021618
v 0.044162 0.029199 -0.020207
v 0.048529 0.029199 -0.010664
v 0.035354 0.026444 -0.027718
v 0.035354 0.021650 -0.027718
v 0.044088 0.021650 -0.008632
v 0.039721 0.021650 -0.018175
v 0.039721 0.026444 -0.018175
v 0.044088 0.026444 -0.008632
v 0.054173 0.072063 -0.024788
v 0.053704 0.080430 -0.024573
v 0.058540 0.072063 -0.015244
v 0.049337 0.080430 -0.034116
v 0.049806 0.072063 -0.034331
v 0.058070 0.080430 -0.015030
v 0.030648 0.021650 -0.014023
v 0.026281 0.021650 -0.023567
v 0.035014 0.021650 -0.004480
v 0.035014 0.026444 -0.004480
v 0.030648 0.026444 -0.014023
v 0.026281 0.026444 -0.023567
vn 0.4161 0.0000 0.9093
vn -0.3488 0.0000 0.9372
vn -0.2848 -0.5773 0.7652
vn 0.2942 -0.7071 0.6430
vn -0.9093 0.0000 0.4161
vn -0.9372 0.0000 -0.3488
vn -0.7652 -0.5773 -0.2848
vn -0.6430 -0.7071 0.2942
vn -0.4161 0.0000 -0.9093
vn 0.3488 0.0000 -0.9372
vn 0.2848 -0.5773 -0.7652
vn -0.2942 -0.7071 -0.6430
vn 0.9093 0.0000 -0.4161
vn 0.9372 0.0000 0.3488
vn 0.7652 -0.5773 0.2848
vn 0.6430 -0.7071 -0.2942
vn -0.3996 -0.9045 -0.1487
vn 0.3870 -0.3670 0.8459
vn 0.8397 -0.4440 0.3125
vn 0.8766 0.3536 0.3262
vn 0.3811 0.4015 0.8328
vn 0.0152 0.9993 0.0333
vn -0.0047 0.9999 0.0128
vn -0.2848 0.5773 0.7652
vn 0.2942 0.7071 0.6430
vn -0.0333 0.9993 0.0152
vn -0.0128 0.9999 -0.0047
vn -0.7652 0.5773 -0.2848
vn -0.6430 0.7071 0.2942
vn -0.0152 0.9993 -0.0332
vn 0.0047 0.9999 -0.0128
vn 0.2848 0.5773 -0.7652
vn -0.2942 0.7071 -0.6430
vn 0.0333 0.9993 -0.0152
vn 0.0128 0.9999 0.0047
vn 0.7652 0.5773 0.2848
vn 0.6430 0.7071 -0.2942
vn 0.0000 1.0000 0.0000
vn 0.8328 0.4015 -0.3811
vn 0.3262 0.3536 -0.8766
vn -0.3811 0.4015 -0.8328
vn -0.3870 -0.3670 -0.8459
vn -0.8397 -0.4440 -0.3125
vn -0.8766 0.3536 -0.3262
vn -0.8459 -0.3670 0.3870
vn -0.3125 -0.4440 0.8397
vn -0.3262 0.3536 0.8766
vn -0.8328 0.4015 0.3811
vn 0.8459 -0.3670 -0.3870
vn 0.3125 -0.4440 -0.8397
vn 0.9092 0.0139 -0.4160
vn 0.3487 0.0153 -0.9371
vn -0.9092 0.0139 0.4160
vn -0.3487 0.0153 0.9371
vn -0.4160 0.0139 -0.9092
vn -0.9371 0.0153 -0.3487
vn 0.4160 0.0139 0.9092
vn 0.9371 0.0153 0.3487
vn 0.1723 0.6183 0.7668
vn -0.2309 0.9672 0.1057
vn 0.1487 -0.9045 -0.3996
vn 0.3996 -0.9045 0.1487
vn -0.1487 -0.9045 0.3996
vn 0.0000 -1.0000 0.0000
vn 0.4320 -0.7321 0.5267
vn -0.0183 0.9986 0.0490
vn -0.0690 0.9971 0.0316
vn 0.0183 0.9986 -0.0490
vn 0.0690 0.9971 -0.0316
vn 0.0490 0.9986 0.0183
vn 0.0316 0.9971 0.0690
vn -0.0490 0.9986 -0.0183
vn -0.0316 0.9971 -0.0690
vn 0.4841 0.8562 0.1802
vn 0.5467 0.7990 -0.2502
vn -0.4841 0.8562 -0.1802
vn -0.5467 0.7990 0.2502
vn 0.1802 0.8562 -0.4841
vn -0.2502 0.7990 -0.5467
vn -0.1802 0.8562 0.4841
vn 0.2502 0.7990 0.5467
vn 0.6987 0.3010 -0.6490
vn -0.2921 0.7062 -0.6449
vn -0.1067 -0.4935 -0.8632
vn 0.9469 -0.2912 -0.1363
vn 0.6823 -0.6611 -0.3122
vn 0.4763 -0.8518 -0.2179
vn 0.6319 -0.6649 0.3982
vn 0.9479 0.3010 -0.1043
vn 0.6455 0.7043 -0.2954
vn 0.7222 -0.2912 -0.6273
vn 0.4265 -0.8832 -0.1951
vn 0.1118 -0.6649 -0.7385
vn 0.5834 -0.4935 0.6451
vn 0.2971 0.7062 0.6426
vn 0.0035 1.0000 -0.0016
vn -0.6505 -0.3015 -0.6970
vn 0.3912 -0.2858 -0.8748
vn -0.8250 0.2364 -0.5133
vn -0.8322 0.4031 0.3808
vn 0.1022 -0.3015 0.9480
vn 0.8451 -0.3690 -0.3867
vn 0.9177 -0.2858 0.2759
vn 0.6821 -0.5953 0.4247
vn 0.5433 -0.8019 -0.2486
vn -0.1510 0.2364 0.9598
vn -0.5337 0.8096 0.2442
vn -0.0575 0.5502 0.8330
vn 0.6970 0.3015 -0.6505
vn 0.6970 -0.3015 -0.6505
vn 0.9480 -0.3015 -0.1022
vn 0.9480 0.3015 -0.1022
vn 0.2098 -0.9730 -0.0960
vn -0.6680 0.5502 -0.5011
vn 0.1245 -0.5953 -0.7938
vn -0.1161 -0.7321 -0.6712
vn -0.4676 0.6183 -0.6317
usemtl Cup_2_M
s 1
f 44//1 22//2 25//3 34//4
f 60//5 23//6 27//7 50//8
f 43//9 142//10 28//11 36//12
f 143//13 144//14 26//15 52//16
f 62//8 1//17 30//7 64//8
f 42//18 17//19 15//20 40//21
f 72//22 68//23 10//24 33//25
f 74//26 69//27 11//28 49//29
f 71//30 70//31 102//32 35//33
f 73//34 67//35 100//36 101//37
f 66//38 55//39 14//40 39//41
f 41//42 19//43 13//44 39//41
f 58//45 18//46 16//47 56//48
f 57//49 20//50 14//40 55//39
f 82//51 76//52 20//50 57//49
f 81//53 75//54 18//46 58//45
f 80//55 78//56 19//43 41//42
f 79//57 77//58 17//19 42//18
f 168//25 158//59 157//60 169//38
f 96//9 141//10 142//10 43//9
f 97//5 93//6 23//6 60//5
f 95//1 92//2 22//2 44//1
f 45//12 1//17 26//15 34//4
f 61//16 3//61 25//3 50//8
f 46//4 7//62 27//7 36//12
f 62//8 5//63 28//11 52//16
f 65//64 63//16 31//15 48//4
f 61//16 7//62 31//15 63//16
f 46//4 5//63 32//3 48//4
f 45//12 3//61 29//11 47//12
f 1//17 45//12 47//12 30//7
f 7//62 46//4 48//4 31//15
f 64//8 65//64 48//4 32//3
f 5//63 46//4 36//12 28//11
f 3//61 45//12 34//4 25//3
f 145//14 95//1 44//1 144//14
f 93//6 96//9 43//9 23//6
f 75//54 79//57 42//18 18//46
f 76//52 80//55 41//42 20//50
f 20//50 41//42 39//41 14//40
f 56//48 66//38 39//41 13//44
f 69//27 71//30 35//33 11//28
f 67//35 72//22 33//25 100//36
f 18//46 42//18 40//21 16//47
f 23//6 43//9 36//12 27//7
f 144//14 44//1 34//4 26//15
f 16//47 40//21 66//38 56//48
f 30//7 47//12 65//64 64//8
f 3//61 61//16 63//16 29//11
f 47//12 29//11 63//16 65//64
f 1//17 62//8 52//16 26//15
f 7//62 61//16 50//8 27//7
f 92//2 97//5 60//5 22//2
f 167//4 155//65 158//59 168//25
f 78//56 81//53 58//45 19//43
f 77//58 82//51 57//49 17//19
f 17//19 57//49 55//39 15//20
f 19//43 58//45 56//48 13//44
f 40//21 15//20 55//39 66//38
f 70//31 73//34 101//37 102//32
f 68//23 74//26 49//29 10//24
f 5//63 62//8 64//8 32//3
f 142//10 143//13 52//16 28//11
f 22//2 60//5 50//8 25//3
f 84//66 90//67 74//26 68//23
f 86//68 89//69 73//34 70//31
f 83//70 88//71 72//22 67//35
f 85//72 87//73 71//30 69//27
f 89//69 83//70 67//35 73//34
f 87//73 86//68 70//31 71//30
f 90//67 85//72 69//27 74//26
f 88//71 84//66 68//23 72//22
f 8//74 53//75 82//51 77//58
f 2//76 54//77 81//53 78//56
f 4//78 37//79 80//55 76//52
f 6//80 38//81 79//57 75//54
f 38//81 8//74 77//58 79//57
f 37//79 2//76 78//56 80//55
f 54//77 6//80 75//54 81//53
f 53//75 4//78 76//52 82//51
f 37//79 4//78 84//66 88//71
f 53//75 8//74 85//72 90//67
f 38//81 6//80 86//68 87//73
f 54//77 2//76 83//70 89//69
f 8//74 38//81 87//73 85//72
f 2//76 37//79 88//71 83//70
f 6//80 54//77 89//69 86//68
f 4//78 53//75 90//67 84//66
f 119//10 12//82 109//83 122//84
f 112//2 117//5 97//5 92//2
f 113//6 116//9 96//9 93//6
f 111//14 115//1 95//1 145//14
f 115//1 112//2 92//2 95//1
f 117//5 113//6 93//6 97//5
f 116//9 114//10 141//10 96//9
f 91//85 98//86 106//87 107//88
f 118//14 9//89 100//36 111//14
f 9//89 51//90 101//37 100//36
f 51//90 12//82 102//32 101//37
f 119//10 94//91 141//10 114//10
f 94//91 98//86 104//13 141//10
f 98//86 91//85 145//14 104//13
f 122//84 120//92 106//87 110//93
f 120//92 121//94 107//88 106//87
f 51//90 9//89 108//95 105//96
f 98//86 94//91 110//93 106//87
f 12//82 51//90 105//96 109//83
f 118//14 91//85 107//88 121//94
f 9//89 118//14 121//94 108//95
f 132//38 131//25 124//36 125//37
f 129//97 128//10 136//98 135//99
f 12//82 119//10 114//10 102//32
f 91//85 118//14 111//14 145//14
f 35//33 102//32 114//10 116//9
f 49//29 11//28 113//6 117//5
f 33//25 10//24 112//2 115//1
f 100//36 33//25 115//1 111//14
f 11//28 35//33 116//9 113//6
f 10//24 49//29 117//5 112//2
f 94//91 119//10 122//84 110//93
f 125//37 124//36 123//14 127//13
f 126//32 125//37 127//13 128//10
f 130//8 129//97 135//99 139//100
f 134//33 132//38 125//37 126//32
f 131//25 133//101 123//14 124//36
f 129//97 134//33 126//32 128//10
f 163//12 162//33 134//33 129//97
f 164//25 161//4 133//101 131//25
f 162//33 160//38 132//38 134//33
f 161//4 159//64 130//8 133//101
f 159//64 163//12 129//97 130//8
f 160//38 164//25 131//25 132//38
f 138//102 137//103 149//104 150//105
f 140//106 139//100 151//107 152//108
f 127//13 123//14 137//103 138//102
f 123//14 133//101 140//106 137//103
f 133//101 130//8 139//100 140//106
f 128//10 127//13 138//102 136//98
f 103//109 24//110 142//10 141//10
f 24//110 59//16 143//13 142//10
f 59//16 21//111 144//14 143//13
f 21//111 99//112 145//14 144//14
f 146//37 103//109 141//10 104//13
f 99//112 146//37 104//13 145//14
f 150//105 149//104 155//65 156//113
f 152//108 151//107 157//60 158//59
f 139//100 135//99 147//114 151//107
f 137//103 140//106 152//108 149//104
f 136//98 138//102 150//105 148//115
f 135//99 136//98 148//115 147//114
f 165//64 156//113 155//65 167//4
f 166//12 154//116 156//113 165//64
f 151//107 147//114 153//117 157//60
f 149//104 152//108 158//59 155//65
f 148//115 150//105 156//113 154//116
f 147//114 148//115 154//116 153//117
f 105//96 108//95 164//25 160//38
f 120//92 122//84 163//12 159//64
f 121//94 120//92 159//64 161//4
f 109//83 105//96 160//38 162//33
f 108//95 121//94 161//4 164//25
f 122//84 109//83 162//33 163//12
f 169//38 157//60 153//117 170//33
f 170//33 153//117 154//116 166//12
f 103//109 170//33 166//12 24//110
f 146//37 169//38 170//33 103//109
f 24//110 166//12 165//64 59//16
f 59//16 165//64 167//4 21//111
f 21//111 167//4 168//25 99//112
f 99//112 168//25 169//38 146//37
